<?xml version="1.0" encoding="utf-8"?>
<!-- Generator: Adobe Illustrator 19.0.0, SVG Export Plug-In . SVG Version: 6.00 Build 0)  -->
<svg version="1.1" id="Layer_1" xmlns="http://www.w3.org/2000/svg" xmlns:xlink="http://www.w3.org/1999/xlink" x="0px" y="0px"
	 viewBox="0 0 792 200" style="enable-background:new 0 0 792 200;" xml:space="preserve">
<style type="text/css">
	.st0{fill:#FFFFFF;}
</style>
<g id="XMLID_43_">
	<g id="XMLID_179_">
		<polygon id="XMLID_195_" class="st0" points="692.2,65.9 692.2,134.2 735.1,134.2 735.1,119.3 713.5,119.3 713.5,106 731.2,106 
			731.2,91.2 713.3,91.2 713.3,78.9 735.1,78.9 735.1,65.9 		"/>
		<path id="XMLID_192_" class="st0" d="M80.7,65.9c-6.5,0-23.8,0-23.8,0v68.4h21.6v-23.7c0,0,1.6,0,6.8-0.5
			c16.9-1.8,20.9-13.4,20.9-23.4C106.3,77.6,100.8,65.9,80.7,65.9z M78.1,94.3V80c0,0,10.9-0.2,10.9,6.7
			C89,95.4,78.1,94.3,78.1,94.3z"/>
		<path id="XMLID_191_" class="st0" d="M178.7,66.2h-21c0,0,0,35.8,0,39.8c0,4-1.2,10.7-8.4,10.7s-8.4-6.6-8.4-10.7
			c0-4,0-39.8,0-39.8h-20.8c0,0,0,36.7,0,39.5c0,6.9,1.2,27.7,29.6,27.7c29.9,0,29-24.8,29-27.7C178.7,102.9,178.7,66.2,178.7,66.2z
			"/>
		<path id="XMLID_188_" class="st0" d="M235.3,104c0,0,11.5-3,11.5-17.4c0-22-22.4-20.3-50.2-20.3v67.5h19.3v-25.5l15.4,25.5h24
			L235.3,104z M216.1,94.3V80c0,0,10.6-0.2,10.6,6.7C226.7,95.4,216.1,94.3,216.1,94.3z"/>
		<polygon id="XMLID_187_" class="st0" points="262.2,65.9 262.2,134.2 305.1,134.2 305.1,119.3 283.5,119.3 283.5,106 301.2,106 
			301.2,91.2 283.3,91.2 283.3,78.9 305.1,78.9 305.1,65.9 		"/>
		<polygon id="XMLID_186_" class="st0" points="311.4,65.9 334.5,133.2 356.2,133.2 379.3,65.9 354.7,65.9 345.5,101.4 336.8,65.9 
					"/>
		<path id="XMLID_183_" class="st0" d="M441.8,74.2c-5.9-5.6-14.7-8.2-23.4-8.2c-9,0-18.2,3.2-24.2,9.1c-6.3,6.2-9.1,15.4-9.1,25.1
			c0,8.6,2,16.7,7.1,22.7c6.1,7.2,16.2,11.5,26.2,11.5c9.8,0,19.2-3.9,25.3-10.8c5.4-6.1,8-14.5,8-23.4
			C451.7,90.2,448.4,80.4,441.8,74.2z M418.6,116.6c-5.4,0-11.5-4.1-11.5-16.2s3.5-19.3,11-19.3c7.6,0,11.3,7.1,11.3,19.3
			S424,116.6,418.6,116.6z"/>
		<polygon id="XMLID_182_" class="st0" points="466,66.4 466,133.5 511.9,133.5 511.9,117.4 485.9,117.4 485.9,66.4 		"/>
		<path id="XMLID_181_" class="st0" d="M581.7,66.2h-21c0,0,0,35.8,0,39.8c0,4-1.2,10.7-8.4,10.7s-8.4-6.6-8.4-10.7
			c0-4,0-39.8,0-39.8h-20.8c0,0,0,36.7,0,39.5c0,6.9,1.2,27.7,29.6,27.7c29.9,0,29-24.8,29-27.7C581.7,102.9,581.7,66.2,581.7,66.2z
			"/>
		<polygon id="XMLID_180_" class="st0" points="637.3,108.1 649.4,66.2 674.8,66.2 674.8,132.6 656.9,132.6 656.9,95.7 646.5,132.6 
			637.3,132.6 628,132.6 617.7,95.7 617.7,132.6 599.8,132.6 599.8,66.2 625.2,66.2 		"/>
	</g>
</g>
</svg>
